<svg width="300" height="300" viewBox="0 0 300 300" fill="none" xmlns="http://www.w3.org/2000/svg">
<circle cx="150" cy="150" r="150" fill="#1A202C"/>
<path d="M210.331 84.4712C218.007 76.5583 225.557 68.7791 233.108 61C282.857 105.835 285.515 190.443 233.075 239C225.499 231.263 217.907 223.517 210.339 215.78C196.417 228.645 178.026 225.918 167.934 215.52C157.874 205.148 155.731 186.897 167.709 173.864C161.662 167.875 155.606 161.895 149.526 155.872C144.085 161.384 138.245 167.306 132.265 173.363C124.639 166.135 116.116 163.066 106.215 164.488C99.3699 165.475 93.6216 168.653 88.8702 173.705C79.7079 183.467 76.7839 201.359 89.8255 215.554C85.9296 219.452 82.0005 223.366 78.1047 227.289C74.2504 231.171 70.4044 235.077 66.5666 238.967C16.6848 194.759 13.7525 109.063 66.2012 61.0251C73.9596 68.8628 81.7181 76.7088 89.6012 84.672C96.8945 77.7879 105.143 74.969 114.596 76.0899C121.457 76.9012 127.289 79.9711 132.123 84.9313C142.183 95.2533 144.235 113.446 132.173 126.596C138.004 132.451 143.827 138.306 149.584 144.095C155.382 138.172 161.272 132.158 167.311 125.985C175.194 133.346 183.882 136.424 193.95 134.76C200.969 133.597 206.768 130.159 211.453 124.772C219.925 115.052 222.559 97.9467 210.331 84.4712Z" fill="white"/>
</svg>
