<svg width="838" height="838" viewBox="0 0 838 838" fill="none" xmlns="http://www.w3.org/2000/svg">
<rect width="838" height="838" rx="419" fill="#171923"/>
<path d="M182.929 411.806C153.68 411.562 124.897 411.325 96.1291 411.08C86.8559 588.651 240.599 751.388 430.143 742.847C429.85 714.107 429.557 685.332 429.264 656.612C479.537 654.289 508.947 614.461 508.375 576.015C507.81 537.68 477.583 499.59 430.659 497.936C430.785 475.343 430.91 452.764 431.043 430.038C451.613 430.031 473.669 430.031 496.269 430.024C497.022 402.135 507.265 380.309 528.526 364.268C543.221 353.181 559.98 348.241 578.373 348.694C613.889 349.573 652.942 377.414 655.091 428.524C669.73 428.433 684.425 428.308 699.126 428.266C713.653 428.217 728.188 428.245 742.68 428.238C753.383 251.595 598.12 86.2838 409.538 95.829C409.678 125.1 409.831 154.37 409.971 184.109C383.373 185.058 362.587 195.398 346.943 215.326C335.584 229.797 330.406 246.536 330.636 264.929C331.111 303.18 361.407 340.97 408.715 342.701C408.757 364.638 408.806 386.547 408.847 408.213C386.861 408.122 364.526 408.038 341.591 407.954C340.6 436.576 330.064 458.716 308.043 474.652C292.693 485.754 275.361 490.289 256.438 489.096C222.297 486.94 185.253 460.035 182.929 411.806Z" fill="white"/>
<path d="M419.143 108.884C502.022 108.884 579.933 141.155 638.53 199.759C697.127 258.356 729.405 336.274 729.405 419.146C729.405 502.018 697.134 579.936 638.53 638.54C579.933 697.145 502.022 729.416 419.143 729.416C336.264 729.416 258.353 697.145 199.756 638.54C141.159 579.936 108.888 502.018 108.888 419.139C108.888 336.26 141.159 258.349 199.763 199.752C258.36 141.162 336.271 108.884 419.143 108.884ZM419.143 94.894C240.065 94.894 94.8906 240.068 94.8906 419.146C94.8906 598.224 240.065 743.406 419.143 743.406C598.221 743.406 743.395 598.231 743.395 419.153C743.395 240.075 598.228 94.894 419.143 94.894Z" fill="white"/>
</svg>
