<svg width="260" height="191" viewBox="0 0 260 191" fill="none" xmlns="http://www.w3.org/2000/svg">
<path d="M194.751 25.0701C202.949 16.6181 211.015 8.30903 219.08 0C272.217 47.8886 275.057 138.261 219.044 190.125C210.952 181.861 202.843 173.587 194.76 165.323C179.89 179.064 160.246 176.152 149.466 165.046C138.721 153.967 136.432 134.472 149.226 120.552C142.767 114.155 136.299 107.767 129.804 101.334C123.992 107.222 117.755 113.548 111.367 120.016C103.222 112.297 94.1185 109.018 83.5425 110.537C76.2315 111.591 70.0917 114.986 65.0166 120.383C55.2301 130.809 52.107 149.92 66.0369 165.082C61.8757 169.245 57.6789 173.427 53.5177 177.617C49.4008 181.762 45.2929 185.935 41.1937 190.089C-12.086 142.871 -15.218 51.3373 40.8033 0.0268057C49.0903 8.39838 57.3773 16.7789 65.7973 25.2845C73.5874 17.9314 82.3979 14.9205 92.4949 16.1177C99.8236 16.9844 106.052 20.2633 111.216 25.5615C121.961 36.5866 124.152 56.019 111.269 70.0639C117.498 76.318 123.717 82.5721 129.866 88.7548C136.059 82.4292 142.35 76.0053 148.8 69.4117C157.22 77.274 166.501 80.5619 177.254 78.784C184.752 77.5421 190.945 73.87 195.949 68.1162C204.999 57.7344 207.812 39.4634 194.751 25.0701Z" fill="white"/>
</svg>
