<svg width="35" height="35" viewBox="0 0 35 35" fill="none" xmlns="http://www.w3.org/2000/svg">
<path d="M0.0590104 22.1743C0.11791 22.3968 0.22042 22.6054 0.36059 22.788C0.50076 22.9705 0.675798 23.1234 0.875546 23.2378L4.22054 25.1721V29.025C4.22054 29.4896 4.40514 29.9353 4.73375 30.2639C5.06235 30.5925 5.50804 30.777 5.97276 30.777H9.82589L11.7603 34.1235C11.9934 34.5252 12.3761 34.8182 12.8247 34.9384C13.2733 35.0586 13.7512 34.9962 14.1539 34.7648L17.4989 32.8322L20.8456 34.7665C21.2483 34.9979 21.7262 35.0604 22.1748 34.9402C22.6234 34.82 23.0061 34.527 23.2391 34.1253L25.1718 30.7806H29.025C29.4897 30.7806 29.9354 30.596 30.264 30.2674C30.5926 29.9388 30.7772 29.4931 30.7772 29.0285V25.1756L34.1222 23.2413C34.3216 23.1264 34.4964 22.9734 34.6367 22.7908C34.7769 22.6083 34.8797 22.4 34.9392 22.1776C34.9988 21.9553 35.014 21.7235 34.9838 21.4953C34.9536 21.2672 34.8788 21.0472 34.7635 20.848L32.8308 17.5015L34.7653 14.1568C34.9976 13.7544 35.0606 13.2761 34.9403 12.8273C34.82 12.3785 34.5264 11.9958 34.1239 11.7634L30.7789 9.82912V5.97628C30.7789 5.5116 30.5943 5.06595 30.2657 4.73737C29.9371 4.40879 29.4914 4.2242 29.0267 4.2242H25.1736L23.2409 0.879468C23.0081 0.477583 22.6257 0.184082 22.1773 0.062996C21.955 0.00284929 21.7231 -0.0126348 21.4948 0.0174392C21.2665 0.0475133 21.0465 0.122549 20.8474 0.238205L17.4989 2.17075L14.1539 0.236452C13.9548 0.120877 13.7349 0.0457316 13.5068 0.0153259C13.2786 -0.0150797 13.0467 -0.000147308 12.8243 0.0592669C12.6019 0.118681 12.3935 0.221408 12.2109 0.361556C12.0283 0.501704 11.8752 0.676515 11.7603 0.875963L9.82589 4.22245H5.97276C5.50804 4.22245 5.06235 4.40704 4.73375 4.73562C4.40514 5.0642 4.22054 5.50985 4.22054 5.97453V9.82737L0.875546 11.7634C0.47376 11.9964 0.180788 12.3792 0.0608912 12.8279C-0.0590056 13.2765 0.00396297 13.7545 0.235985 14.1568L2.16868 17.5015L0.234233 20.8462C0.00275634 21.2484 -0.0602329 21.7258 0.0590104 22.1743Z" fill="#E2E8F0"/>
</svg>
