<svg width="14" height="13" viewBox="0 0 14 13" fill="none" xmlns="http://www.w3.org/2000/svg">
<ellipse cx="6.60522" cy="6.52902" rx="3.72631" ry="3.68527" fill="white"/>
<path d="M12.315 5.03866C12.0938 4.81 11.8649 4.57437 11.7787 4.36719C11.6989 4.17741 11.6942 3.86286 11.6895 3.55817C11.6807 2.99174 11.6713 2.34987 11.22 1.90357C10.7687 1.45728 10.1197 1.44799 9.54699 1.43929C9.23891 1.43464 8.92085 1.43 8.72896 1.35107C8.52005 1.26576 8.28121 1.03942 8.05001 0.820625C7.6451 0.435848 7.18503 0 6.57239 0C5.95975 0 5.50027 0.435848 5.09478 0.820625C4.86357 1.03942 4.62532 1.26576 4.41583 1.35107C4.22511 1.43 3.90588 1.43464 3.5978 1.43929C3.02506 1.44799 2.37604 1.45728 1.92477 1.90357C1.47351 2.34987 1.46705 2.99174 1.45532 3.55817C1.45062 3.86286 1.44593 4.17741 1.36612 4.36719C1.27986 4.57379 1.051 4.81 0.829765 5.03866C0.440702 5.43911 0 5.89411 0 6.5C0 7.10589 0.440702 7.56031 0.829765 7.96134C1.051 8.19 1.27986 8.42562 1.36612 8.63281C1.44593 8.82259 1.45062 9.13714 1.45532 9.44183C1.46412 10.0083 1.47351 10.6501 1.92477 11.0964C2.37604 11.5427 3.02506 11.552 3.5978 11.5607C3.90588 11.5654 4.22394 11.57 4.41583 11.6489C4.62473 11.7342 4.86357 11.9606 5.09478 12.1794C5.49968 12.5642 5.95975 13 6.57239 13C7.18503 13 7.64451 12.5642 8.05001 12.1794C8.28121 11.9606 8.51946 11.7342 8.72896 11.6489C8.92085 11.57 9.23891 11.5654 9.54699 11.5607C10.1197 11.552 10.7687 11.5427 11.22 11.0964C11.6713 10.6501 11.6807 10.0083 11.6895 9.44183C11.6942 9.13714 11.6989 8.82259 11.7787 8.63281C11.8649 8.4262 12.0938 8.19 12.315 7.96134C12.7041 7.56089 13.1448 7.10589 13.1448 6.5C13.1448 5.89411 12.7041 5.43969 12.315 5.03866ZM9.25182 5.43563L5.96562 8.68563C5.92202 8.72879 5.87024 8.76304 5.81325 8.7864C5.75626 8.80977 5.69517 8.82179 5.63348 8.82179C5.57179 8.82179 5.5107 8.80977 5.45371 8.7864C5.39671 8.76304 5.34494 8.72879 5.30134 8.68563L3.89297 7.29277C3.80488 7.20565 3.75539 7.08749 3.75539 6.96429C3.75539 6.84108 3.80488 6.72292 3.89297 6.6358C3.98106 6.54868 4.10053 6.49974 4.22511 6.49974C4.34969 6.49974 4.46916 6.54868 4.55725 6.6358L5.63348 7.70076L8.58754 4.77866C8.63115 4.73552 8.68293 4.70131 8.73992 4.67796C8.79691 4.65461 8.85799 4.6426 8.91968 4.6426C8.98136 4.6426 9.04244 4.65461 9.09943 4.67796C9.15642 4.70131 9.2082 4.73552 9.25182 4.77866C9.29543 4.8218 9.33003 4.87301 9.35364 4.92937C9.37724 4.98573 9.38939 5.04614 9.38939 5.10714C9.38939 5.16815 9.37724 5.22856 9.35364 5.28492C9.33003 5.34128 9.29543 5.39249 9.25182 5.43563Z" fill="#4FD1C5"/>
</svg>
