<svg width="128" height="128" viewBox="0 0 128 128" fill="none" xmlns="http://www.w3.org/2000/svg">
<path d="M86.9057 101.906H41.0938C37.1168 101.902 33.304 100.32 30.4918 97.508C27.6797 94.6959 26.098 90.883 26.0938 86.9061V47.2121C26.0938 46.4164 26.4098 45.6533 26.9724 45.0907C27.535 44.5281 28.2981 44.2121 29.0938 44.2121C29.8894 44.2121 30.6525 44.5281 31.2151 45.0907C31.7777 45.6533 32.0938 46.4164 32.0938 47.2121V86.9061C32.0938 89.293 33.042 91.5822 34.7298 93.27C36.4176 94.9578 38.7068 95.9061 41.0938 95.9061H86.9057C89.2927 95.9061 91.5819 94.9578 93.2697 93.27C94.9575 91.5822 95.9057 89.293 95.9057 86.9061V41.0941C95.9057 38.7071 94.9575 36.4179 93.2697 34.7301C91.5819 33.0423 89.2927 32.0941 86.9057 32.0941H41.0938C39.6703 32.097 38.2676 32.4362 37 33.084C35.7325 33.7319 34.636 34.67 33.7997 35.8221C33.5714 36.1481 33.2805 36.4255 32.944 36.638C32.6074 36.8505 32.2319 36.994 31.8393 37.0599C31.4468 37.1259 31.045 37.113 30.6575 37.0222C30.2699 36.9313 29.9044 36.7643 29.582 36.5307C29.2597 36.2971 28.9871 36.0018 28.78 35.6618C28.573 35.3218 28.4357 34.9441 28.3761 34.5505C28.3165 34.1569 28.3358 33.7554 28.4329 33.3694C28.53 32.9834 28.703 32.6206 28.9417 32.302C30.336 30.3843 32.1637 28.823 34.2758 27.7456C36.3879 26.6682 38.7247 26.105 41.0958 26.1021H86.9057C90.8827 26.1063 94.6955 27.688 97.5077 30.5001C100.32 33.3123 101.902 37.1251 101.906 41.1021V86.9061C101.902 90.883 100.32 94.6959 97.5077 97.508C94.6955 100.32 90.8827 101.902 86.9057 101.906Z" fill="#CBD5E0"/>
<path d="M58.9401 81.6997C58.4799 81.6989 58.0261 81.5923 57.6137 81.388C57.2014 81.1837 56.8416 80.8873 56.5621 80.5217L44.0341 64.1357C43.7885 63.8234 43.6074 63.4653 43.5014 63.0823C43.3953 62.6994 43.3664 62.2992 43.4163 61.905C43.4662 61.5108 43.5939 61.1304 43.7921 60.7859C43.9902 60.4415 44.2547 60.1398 44.5704 59.8985C44.8861 59.6571 45.2465 59.4809 45.6309 59.38C46.0152 59.2791 46.4158 59.2556 46.8093 59.3108C47.2028 59.366 47.5814 59.4988 47.9232 59.7015C48.2649 59.9043 48.563 60.1729 48.8001 60.4917L58.9581 73.7717L79.2121 47.4697C79.4525 47.1576 79.7521 46.8959 80.0937 46.6995C80.4353 46.5031 80.8122 46.3759 81.203 46.3252C81.5937 46.2745 81.9907 46.3013 82.3711 46.404C82.7515 46.5067 83.1079 46.6833 83.4201 46.9237C83.7322 47.1642 83.994 47.4638 84.1903 47.8054C84.3867 48.147 84.5139 48.5239 84.5646 48.9147C84.6153 49.3054 84.5885 49.7023 84.4858 50.0827C84.3831 50.4631 84.2065 50.8196 83.9661 51.1317L61.3161 80.5317C61.0358 80.8952 60.6758 81.1895 60.2639 81.392C59.852 81.5945 59.3991 81.6998 58.9401 81.6997Z" fill="#38B2AC"/>
</svg>
