<svg width="51" height="46" viewBox="0 0 51 46" fill="none" xmlns="http://www.w3.org/2000/svg">
<path d="M9.87101 23.5656V10.998H5.15816C3.90823 10.998 2.7095 11.4946 1.82567 12.3784C0.941843 13.2622 0.445313 14.461 0.445312 15.7109V43.988C0.447651 44.2797 0.531192 44.5651 0.686573 44.812C0.841955 45.059 1.06304 45.2578 1.32504 45.3861C1.57746 45.5009 1.85577 45.5468 2.13169 45.5193C2.4076 45.4917 2.6713 45.3915 2.89599 45.229L10.9864 39.2751H32.0999C32.6953 39.2927 33.288 39.1879 33.8413 38.9671C34.3945 38.7464 34.8965 38.4144 35.3163 37.9917C35.736 37.5691 36.0645 37.0647 36.2813 36.5099C36.4982 35.9552 36.5989 35.3618 36.5771 34.7665V32.9913H19.2967C16.7969 32.9913 14.3994 31.9983 12.6317 30.2306C10.8641 28.463 9.87101 26.0655 9.87101 23.5656V23.5656Z" fill="#F7FAFC"/>
<path d="M46.001 0H19.2949C18.045 0 16.8462 0.496531 15.9624 1.38036C15.0786 2.26419 14.582 3.46292 14.582 4.71285V23.5642C14.582 24.8142 15.0786 26.0129 15.9624 26.8967C16.8462 27.7806 18.045 28.2771 19.2949 28.2771H40.5812L48.0904 34.1053C48.3136 34.2703 48.5766 34.3733 48.8525 34.4036C49.1285 34.434 49.4076 34.3907 49.6613 34.2781C49.9287 34.1508 50.1546 33.9505 50.313 33.7003C50.4714 33.4502 50.5559 33.1604 50.5568 32.8643V4.71285C50.5574 3.48967 50.0825 2.31415 49.2324 1.4347C48.3823 0.555246 47.2235 0.0407724 46.001 0V0Z" fill="#F7FAFC"/>
</svg>
