<svg width="60" height="67" viewBox="0 0 60 67" fill="none" xmlns="http://www.w3.org/2000/svg">
<path d="M34.7368 0V19.1429C34.7368 20.8352 35.4023 22.4582 36.5867 23.6549C37.7711 24.8515 39.3776 25.5238 41.0526 25.5238H60V57.4286C60 59.1209 59.3346 60.7439 58.1502 61.9406C56.9657 63.1372 55.3593 63.8095 53.6842 63.8095H32.1789C35.4474 60.3721 37.4441 55.902 37.8329 51.1516C38.2216 46.4012 36.9788 41.6604 34.3135 37.7273C31.6483 33.7941 27.7233 30.9087 23.1992 29.5565C18.675 28.2043 13.8279 28.468 9.47368 30.3031V6.38095C9.47368 4.68862 10.1391 3.0656 11.3235 1.86894C12.508 0.672277 14.1144 0 15.7895 0H34.7368ZM39.4737 1.59524V19.1429C39.4737 19.5659 39.64 19.9717 39.9361 20.2709C40.2323 20.57 40.6339 20.7381 41.0526 20.7381H58.4211L39.4737 1.59524ZM0 49.4524C-3.39874e-08 51.7568 0.449247 54.0386 1.32209 56.1676C2.19494 58.2965 3.47429 60.231 5.08709 61.8604C6.6999 63.4899 8.61458 64.7824 10.7218 65.6643C12.829 66.5461 15.0876 67 17.3684 67C19.6493 67 21.9078 66.5461 24.015 65.6643C26.1223 64.7824 28.0369 63.4899 29.6498 61.8604C31.2626 60.231 32.5419 58.2965 33.4148 56.1676C34.2876 54.0386 34.7368 51.7568 34.7368 49.4524C34.7368 44.7985 32.907 40.3352 29.6498 37.0443C26.3925 33.7535 21.9748 31.9048 17.3684 31.9048C12.762 31.9048 8.3443 33.7535 5.08709 37.0443C1.82988 40.3352 6.86406e-08 44.7985 0 49.4524ZM15 59.8214C15 59.1868 15.2495 58.5782 15.6937 58.1294C16.1379 57.6807 16.7403 57.4286 17.3684 57.4286C17.9966 57.4286 18.599 57.6807 19.0431 58.1294C19.4873 58.5782 19.7368 59.1868 19.7368 59.8214C19.7368 60.4561 19.4873 61.0647 19.0431 61.5134C18.599 61.9622 17.9966 62.2143 17.3684 62.2143C16.7403 62.2143 16.1379 61.9622 15.6937 61.5134C15.2495 61.0647 15 60.4561 15 59.8214ZM11.0526 44.6667C11.0526 42.9743 11.718 41.3513 12.9025 40.1547C14.0869 38.958 15.6934 38.2857 17.3684 38.2857C19.0435 38.2857 20.6499 38.958 21.8344 40.1547C23.0188 41.3513 23.6842 42.9743 23.6842 44.6667C23.6842 46.9957 23.0147 48.3038 21.3032 50.116L20.4695 50.9774L20.1032 51.373C19.2095 52.3908 18.9474 53.0576 18.9474 54.2381C18.9474 54.6612 18.781 55.0669 18.4849 55.3661C18.1888 55.6653 17.7872 55.8333 17.3684 55.8333C16.9497 55.8333 16.548 55.6653 16.2519 55.3661C15.9558 55.0669 15.7895 54.6612 15.7895 54.2381C15.7895 51.909 16.4589 50.601 18.1705 48.7888L19.0042 47.9273L19.3705 47.5317C20.2642 46.514 20.5263 45.8503 20.5263 44.6667C20.5263 43.8205 20.1936 43.009 19.6014 42.4107C19.0092 41.8123 18.2059 41.4762 17.3684 41.4762C16.5309 41.4762 15.7277 41.8123 15.1355 42.4107C14.5432 43.009 14.2105 43.8205 14.2105 44.6667C14.2105 45.0897 14.0442 45.4955 13.7481 45.7947C13.452 46.0938 13.0503 46.2619 12.6316 46.2619C12.2128 46.2619 11.8112 46.0938 11.5151 45.7947C11.219 45.4955 11.0526 45.0897 11.0526 44.6667Z" fill="#F7FAFC"/>
</svg>
