<svg width="35" height="35" viewBox="0 0 35 35" fill="none" xmlns="http://www.w3.org/2000/svg">
<path d="M35 17.5C35 27.1644 27.1644 35 17.5 35C7.83563 35 0 27.1644 0 17.5C0 14.8371 0.593542 12.3156 1.65813 10.0552C0.989599 11.7207 0.641285 13.4974 0.631458 15.2921C0.631458 23.2167 7.02917 24.3629 9.75187 24.3381C13.8892 24.3002 18.7265 22.2731 22.801 18.5179L22.1142 22.3825C21.9596 23.2648 22.5371 24.0421 23.4208 24.0479H23.7854C24.6998 24.0479 25.3502 23.3027 25.515 22.381L26.9821 14.124C27.1571 13.2081 26.5548 12.4615 25.639 12.4615H17.3658C16.4471 12.4615 15.6056 12.9485 15.4408 13.8731L15.3767 14.245C15.2454 15.1244 15.8579 15.7865 16.7344 15.7865H21.051C20.9813 15.8533 20.9123 15.9209 20.844 15.9892C17.869 18.8038 14.1998 20.3467 11.1606 20.3467C8.12729 20.3467 4.72938 18.4319 4.72938 14.121C4.72938 5.18437 13.1104 0 17.5 0C27.1454 0 35 7.83563 35 17.5Z" fill="#E2E8F0"/>
</svg>
