<svg width="49" height="55" viewBox="0 0 49 55" fill="none" xmlns="http://www.w3.org/2000/svg">
<path d="M31.9867 0H22.4593C20.9527 4.59387e-05 19.4991 0.560495 18.3762 1.5742C17.2533 2.5879 16.54 3.98374 16.3726 5.49486H11.5707C9.94635 5.49486 8.38848 6.14615 7.23986 7.30544C6.09124 8.46474 5.44595 10.0371 5.44595 11.6766V22.2542C8.32895 20.7672 11.6119 20.2635 14.8024 20.8186C17.993 21.3738 20.9193 22.9578 23.1426 25.3333C25.3659 27.7088 26.7663 30.7476 27.1339 33.9942C27.5014 37.2409 26.8164 40.5202 25.1814 43.3407L31.2708 49.4895C31.9662 50.1905 32.4297 51.0914 32.5978 52.0688C32.766 53.0461 32.6305 54.052 32.2099 54.9486H42.8752C43.6795 54.9486 44.476 54.7887 45.2191 54.478C45.9622 54.1674 46.6374 53.712 47.2061 53.138C47.7748 52.564 48.226 51.8825 48.5338 51.1325C48.8416 50.3825 49 49.5787 49 48.7669V11.6766C49 10.8648 48.8416 10.0609 48.5338 9.31094C48.226 8.56094 47.7748 7.87947 47.2061 7.30544C46.6374 6.73142 45.9622 6.27608 45.2191 5.96541C44.476 5.65475 43.6795 5.49486 42.8752 5.49486H38.0734C37.906 3.98374 37.1927 2.5879 36.0698 1.5742C34.9469 0.560495 33.4932 4.59387e-05 31.9867 0V0ZM22.4593 4.12115H31.9867C32.5282 4.12115 33.0475 4.33824 33.4303 4.72467C33.8132 5.1111 34.0283 5.63522 34.0283 6.18172C34.0283 6.72822 33.8132 7.25233 33.4303 7.63876C33.0475 8.0252 32.5282 8.24229 31.9867 8.24229H22.4593C21.9178 8.24229 21.3985 8.0252 21.0156 7.63876C20.6328 7.25233 20.4177 6.72822 20.4177 6.18172C20.4177 5.63522 20.6328 5.1111 21.0156 4.72467C21.3985 4.33824 21.9178 4.12115 22.4593 4.12115ZM21.6426 43.6567C23.6138 41.28 24.6286 38.2427 24.486 35.1466C24.3434 32.0505 23.0537 29.1214 20.8726 26.9395C18.6914 24.7577 15.7779 23.4823 12.7091 23.3661C9.64037 23.2498 6.64028 24.3011 4.3032 26.3118C1.96612 28.3224 0.462542 31.1457 0.09034 34.2223C-0.281862 37.2989 0.504463 40.4044 2.29354 42.9236C4.08262 45.4427 6.74392 47.1917 9.75024 47.8241C12.7566 48.4565 15.8886 47.9262 18.5258 46.3382L26.4608 54.3442C26.6477 54.5466 26.8731 54.709 27.1235 54.8216C27.374 54.9342 27.6443 54.9948 27.9184 54.9997C28.1925 55.0046 28.4648 54.9537 28.7191 54.85C28.9733 54.7464 29.2042 54.5921 29.3981 54.3965C29.5919 54.2008 29.7448 53.9677 29.8474 53.7112C29.9501 53.4546 30.0006 53.1798 29.9957 52.9031C29.9909 52.6264 29.9309 52.3535 29.8193 52.1008C29.7077 51.848 29.5468 51.6205 29.3462 51.4319L21.6426 43.6567ZM12.2513 43.9589C10.0854 43.9589 8.00826 43.0905 6.47677 41.5448C4.94528 39.999 4.08489 37.9026 4.08489 35.7166C4.08489 33.5306 4.94528 31.4341 6.47677 29.8884C8.00826 28.3427 10.0854 27.4743 12.2513 27.4743C14.4171 27.4743 16.4943 28.3427 18.0258 29.8884C19.5573 31.4341 20.4177 33.5306 20.4177 35.7166C20.4177 37.9026 19.5573 39.999 18.0258 41.5448C16.4943 43.0905 14.4171 43.9589 12.2513 43.9589Z" fill="#F7FAFC"/>
</svg>
