<svg width="21" height="22" viewBox="0 0 21 22" fill="none" xmlns="http://www.w3.org/2000/svg">
<path fill-rule="evenodd" clip-rule="evenodd" d="M2.05529 19.5287C2.05529 19.5287 0.507812 19.5287 0.507812 17.9813C0.507812 16.4338 2.05529 11.7913 9.79269 11.7913C10.1833 11.7913 10.5582 11.8032 10.9179 11.8259C9.79013 12.8454 9.0815 14.32 9.0815 15.9601C9.0815 17.3178 9.56713 18.5621 10.3742 19.5287H2.05529ZM9.79269 10.2439C11.0239 10.2439 12.2048 9.75475 13.0754 8.88413C13.946 8.0135 14.4351 6.83268 14.4351 5.60143C14.4351 4.37017 13.946 3.18935 13.0754 2.31872C12.2048 1.4481 11.0239 0.958984 9.79269 0.958984C8.56144 0.958984 7.38062 1.4481 6.50999 2.31872C5.63937 3.18935 5.15025 4.37017 5.15025 5.60143C5.15025 6.83268 5.63937 8.0135 6.50999 8.88413C7.38062 9.75475 8.56144 10.2439 9.79269 10.2439ZM20.5011 15.8963C20.5011 18.7368 18.1984 21.0394 15.358 21.0394C12.5175 21.0394 10.2149 18.7368 10.2149 15.8963C10.2149 13.0559 12.5175 10.7532 15.358 10.7532C18.1984 10.7532 20.5011 13.0559 20.5011 15.8963ZM15.3596 19.1476L14.8854 18.716L14.8813 18.7122C13.1996 17.1873 12.0897 16.1808 12.0897 14.9458C12.0897 13.9386 12.881 13.1473 13.8881 13.1473C14.4571 13.1473 15.0031 13.4122 15.3596 13.8307C15.716 13.4122 16.2621 13.1473 16.831 13.1473C17.8382 13.1473 18.6295 13.9386 18.6295 14.9458C18.6295 16.1786 17.5234 17.1838 15.8466 18.7075L15.8337 18.7192L15.3596 19.1476Z" fill="#E2E8F0"/>
</svg>
