<svg width="25" height="26" viewBox="0 0 25 26" fill="none" xmlns="http://www.w3.org/2000/svg">
<path fill-rule="evenodd" clip-rule="evenodd" d="M2.1654 23.2759C2.1654 23.2759 0.300781 23.2759 0.300781 21.4112C0.300781 19.5466 2.1654 13.9528 11.4885 13.9528C11.9607 13.9528 12.4138 13.9671 12.8485 13.9946C11.4888 15.2232 10.6344 17.0005 10.6344 18.9773C10.6344 20.6126 11.2191 22.1113 12.1908 23.2759H2.1654ZM11.4885 12.0881C12.9721 12.0881 14.3949 11.4988 15.444 10.4497C16.493 9.40067 17.0824 7.97785 17.0824 6.49426C17.0824 5.01067 16.493 3.58785 15.444 2.5388C14.3949 1.48974 12.9721 0.900391 11.4885 0.900391C10.0049 0.900391 8.58211 1.48974 7.53306 2.5388C6.484 3.58785 5.89465 5.01067 5.89465 6.49426C5.89465 7.97785 6.484 9.40067 7.53306 10.4497C8.58211 11.4988 10.0049 12.0881 11.4885 12.0881ZM24.3833 18.9008C24.3833 22.3234 21.6087 25.0979 18.1862 25.0979C14.7636 25.0979 11.989 22.3234 11.989 18.9008C11.989 15.4782 14.7636 12.7037 18.1862 12.7037C21.6087 12.7037 24.3833 15.4782 24.3833 18.9008ZM18.1894 22.8196L17.6181 22.2995L17.6131 22.295C15.5868 20.4575 14.2494 19.2448 14.2494 17.7566C14.2494 16.5431 15.2029 15.5896 16.4164 15.5896C17.102 15.5896 17.76 15.9088 18.1894 16.4131C18.6189 15.9088 19.2769 15.5896 19.9624 15.5896C21.176 15.5896 22.1295 16.5431 22.1295 17.7566C22.1295 19.2422 20.7967 20.4533 18.7763 22.2893L18.7607 22.3034L18.1894 22.8196Z" fill="#4FD1C5"/>
</svg>
