<svg width="35" height="35" viewBox="0 0 35 35" fill="none" xmlns="http://www.w3.org/2000/svg">
<path d="M18.1351 0.208762C20.2394 0.282762 21.3867 0.505609 23.3298 1.21223L20.5652 8.25972C19.5855 7.92263 19.0364 7.82559 18.1362 7.81919L18.1351 0.208762Z" fill="#E2E8F0"/>
<path d="M24.2873 1.43872C26.2109 2.29842 27.3127 3.04343 28.8506 4.429L23.7075 10.0421C22.9189 9.3498 22.3733 9.00342 21.5453 8.66585L24.2873 1.43872Z" fill="#E2E8F0"/>
<path d="M29.6059 5.03325C31.0886 6.53413 31.8565 7.51166 32.7899 9.36242L25.9605 12.8412C25.4752 11.9092 25.0917 11.3879 24.4419 10.7722L29.6059 5.03325Z" fill="#E2E8F0"/>
<path d="M33.2816 10.3162C34.0868 12.2692 34.5355 13.363 34.7003 15.4308L27.0941 16.1754C26.997 15.1283 26.8389 14.5 26.4701 13.6829L33.2816 10.3162Z" fill="#E2E8F0"/>
<path d="M34.8291 16.4826C34.8737 18.5958 34.8965 19.7785 34.3029 21.7655L26.9457 19.6894C27.2337 18.6783 27.3134 18.0352 27.265 17.1395L34.8291 16.4826Z" fill="#E2E8F0"/>
<path d="M34.1085 22.6868C33.3984 24.6767 32.999 25.7896 31.7377 27.4328L25.6041 22.8563C26.2328 22.015 26.536 21.4429 26.8094 20.5889L34.1085 22.6868Z" fill="#E2E8F0"/>
<path d="M31.1297 28.3286C29.7804 29.9513 28.9502 30.8411 27.2023 31.9477L23.2144 25.5015C24.0538 24.8894 24.4872 24.4152 25.0781 23.7494L31.1297 28.3286Z" fill="#E2E8F0"/>
<path d="M26.3088 32.5384C24.4458 33.5233 23.4242 34.1127 21.3883 34.468L19.9988 27.0034C21.0071 26.7581 21.546 26.4749 22.3449 26.085L26.3088 32.5384Z" fill="#E2E8F0"/>
<path d="M20.3641 34.7154C18.271 34.9455 17.001 35.1347 14.9772 34.7154L16.413 27.2596C17.4407 27.4028 18.0762 27.328 18.9619 27.2596L20.3641 34.7154Z" fill="#E2E8F0"/>
<path d="M13.9276 34.5626C11.8893 34.0323 10.6989 33.7406 8.95485 32.6279L12.9319 26.1682C13.8421 26.668 14.4628 26.8244 15.315 27.0758L13.9276 34.5626Z" fill="#E2E8F0"/>
<path d="M8.02746 32.0615C6.30674 30.8432 5.34437 30.1423 4.10371 28.4834L10.0983 23.9111C10.7743 24.7012 11.3 25.0675 12.0091 25.6046L8.02746 32.0615Z" fill="#E2E8F0"/>
<path d="M3.42876 27.6106C2.30853 25.8209 1.58703 24.8212 1.07894 22.8105L8.32314 20.7351C8.64361 21.7257 8.98818 22.267 9.4363 23.0369L3.42876 27.6106Z" fill="#E2E8F0"/>
<path d="M0.775081 21.7427C0.358392 19.6708 0.0360517 18.4795 0.269795 16.4184L7.79809 17.084C7.74856 18.1243 7.86072 18.7783 8.00837 19.6576L0.775081 21.7427Z" fill="#E2E8F0"/>
<path d="M0.399588 15.3421C0.742831 13.3276 0.885255 12.0725 1.88213 10.1882L8.65991 13.5679C8.2327 14.517 8.09738 15.1666 7.91251 16.0388L0.399588 15.3421Z" fill="#E2E8F0"/>
<path d="M2.36854 9.20945C3.42173 7.4796 4.04449 6.48446 5.58554 5.01253L10.6764 10.6066C9.94759 11.3479 9.60984 11.8506 9.13487 12.6041L2.36854 9.20945Z" fill="#E2E8F0"/>
<path d="M6.39733 4.27783C8.00714 3.05362 8.87073 2.34902 10.8409 1.54377L13.5732 8.61197C12.625 9.03478 12.2032 9.34907 11.4869 9.87641L6.39733 4.27783Z" fill="#E2E8F0"/>
<path d="M11.887 1.15072C13.8351 0.616251 14.9529 0.260517 17.0801 0.249565L17.0801 7.76905C15.7231 7.8204 15.0625 8.0579 14.6121 8.26251L11.887 1.15072Z" fill="#E2E8F0"/>
</svg>
