<svg width="51" height="40" viewBox="0 0 51 40" fill="none" xmlns="http://www.w3.org/2000/svg">
<path d="M6.125 0C4.63316 0 3.20242 0.592633 2.14752 1.64752C1.09263 2.70242 0.5 4.13316 0.5 5.625V11.875C0.5 13.3668 1.09263 14.7976 2.14752 15.8525C3.20242 16.9074 4.63316 17.5 6.125 17.5H12.375C13.8668 17.5 15.2976 16.9074 16.3525 15.8525C17.4074 14.7976 18 13.3668 18 11.875V5.625C18 4.13316 17.4074 2.70242 16.3525 1.64752C15.2976 0.592633 13.8668 0 12.375 0H6.125ZM23.625 2.5C23.1277 2.5 22.6508 2.69754 22.2992 3.04917C21.9475 3.40081 21.75 3.87772 21.75 4.375C21.75 4.87228 21.9475 5.34919 22.2992 5.70083C22.6508 6.05246 23.1277 6.25 23.625 6.25H48.625C49.1223 6.25 49.5992 6.05246 49.9508 5.70083C50.3025 5.34919 50.5 4.87228 50.5 4.375C50.5 3.87772 50.3025 3.40081 49.9508 3.04917C49.5992 2.69754 49.1223 2.5 48.625 2.5H23.625ZM23.625 10C23.1277 10 22.6508 10.1975 22.2992 10.5492C21.9475 10.9008 21.75 11.3777 21.75 11.875C21.75 12.3723 21.9475 12.8492 22.2992 13.2008C22.6508 13.5525 23.1277 13.75 23.625 13.75H41.125C41.6223 13.75 42.0992 13.5525 42.4508 13.2008C42.8025 12.8492 43 12.3723 43 11.875C43 11.3777 42.8025 10.9008 42.4508 10.5492C42.0992 10.1975 41.6223 10 41.125 10H23.625ZM6.125 22.5C4.63316 22.5 3.20242 23.0926 2.14752 24.1475C1.09263 25.2024 0.5 26.6332 0.5 28.125V34.375C0.5 35.1137 0.645495 35.8451 0.928178 36.5276C1.21086 37.2101 1.62519 37.8301 2.14752 38.3525C2.66985 38.8748 3.28995 39.2891 3.97241 39.5718C4.65486 39.8545 5.38631 40 6.125 40H12.375C13.1137 40 13.8451 39.8545 14.5276 39.5718C15.2101 39.2891 15.8301 38.8748 16.3525 38.3525C16.8748 37.8301 17.2891 37.2101 17.5718 36.5276C17.8545 35.8451 18 35.1137 18 34.375V28.125C18 26.6332 17.4074 25.2024 16.3525 24.1475C15.2976 23.0926 13.8668 22.5 12.375 22.5H6.125ZM23.625 25C23.1277 25 22.6508 25.1975 22.2992 25.5492C21.9475 25.9008 21.75 26.3777 21.75 26.875C21.75 27.3723 21.9475 27.8492 22.2992 28.2008C22.6508 28.5525 23.1277 28.75 23.625 28.75H48.625C49.1223 28.75 49.5992 28.5525 49.9508 28.2008C50.3025 27.8492 50.5 27.3723 50.5 26.875C50.5 26.3777 50.3025 25.9008 49.9508 25.5492C49.5992 25.1975 49.1223 25 48.625 25H23.625ZM23.625 32.5C23.1277 32.5 22.6508 32.6975 22.2992 33.0492C21.9475 33.4008 21.75 33.8777 21.75 34.375C21.75 34.8723 21.9475 35.3492 22.2992 35.7008C22.6508 36.0525 23.1277 36.25 23.625 36.25H41.125C41.6223 36.25 42.0992 36.0525 42.4508 35.7008C42.8025 35.3492 43 34.8723 43 34.375C43 33.8777 42.8025 33.4008 42.4508 33.0492C42.0992 32.6975 41.6223 32.5 41.125 32.5H23.625Z" fill="#F7FAFC"/>
</svg>
