<svg width="35" height="34" viewBox="0 0 35 34" fill="none" xmlns="http://www.w3.org/2000/svg">
<path d="M35 28.2051C35 30.9666 32.7614 33.2051 30 33.2051C27.2386 33.2051 25 30.9666 25 28.2051V5C25 2.23858 27.2386 0 30 0C32.7614 0 35 2.23858 35 5V28.2051ZM27.5 28.1509C27.5 29.5316 28.6193 30.6509 30 30.6509C31.3807 30.6509 32.5 29.5316 32.5 28.1509V5.05424C32.5 3.67353 31.3807 2.55424 30 2.55424C28.6193 2.55424 27.5 3.67353 27.5 5.05424V28.1509ZM22.5 28.2051C22.5 30.9666 20.2614 33.2051 17.5 33.2051C14.7386 33.2051 12.5 30.9666 12.5 28.2051V15.217C12.5 12.4555 14.7386 10.217 17.5 10.217C20.2614 10.217 22.5 12.4555 22.5 15.217V28.2051ZM10 28.2051C10 30.9666 7.76142 33.2051 5 33.2051C2.23858 33.2051 0 30.9666 0 28.2051V22.8797C0 20.1183 2.23858 17.8797 5 17.8797C7.76142 17.8797 10 20.1183 10 22.8797V28.2051Z" fill="#E2E8F0"/>
</svg>
