<svg width="29" height="29" viewBox="0 0 29 29" fill="none" xmlns="http://www.w3.org/2000/svg">
<path d="M14.5 0C6.5047 0 0 6.5047 0 14.5C0 22.4953 6.5047 29 14.5 29C22.4953 29 29 22.4953 29 14.5C29 6.5047 22.4953 0 14.5 0ZM15.95 23.2H13.05V20.3H15.95V23.2ZM17.3652 16.1168C17.081 16.3458 16.8069 16.5648 16.5895 16.7823C15.9979 17.3725 15.9515 17.909 15.95 17.9321V18.125H13.05V17.8829C13.05 17.7118 13.0921 16.1762 14.5377 14.7306C14.8205 14.4478 15.1714 14.1607 15.5397 13.862C16.604 12.9993 17.3029 12.37 17.3029 11.5028C17.286 10.7703 16.9831 10.0735 16.459 9.56147C15.935 9.04943 15.2313 8.76284 14.4986 8.76303C13.7659 8.76322 13.0623 9.05017 12.5385 9.56249C12.0147 10.0748 11.7122 10.7718 11.6957 11.5043H8.7957C8.7957 8.35925 11.355 5.8 14.5 5.8C17.6451 5.8 20.2043 8.35925 20.2043 11.5043C20.2043 13.82 18.4948 15.2018 17.3652 16.1168Z" fill="#EDF2F7"/>
</svg>
