<svg width="35" height="39" viewBox="0 0 35 39" fill="none" xmlns="http://www.w3.org/2000/svg">
<path d="M31.1111 3.90036H22.9833C22.5852 2.76047 21.8437 1.77284 20.8613 1.07409C19.879 0.375338 18.7044 0 17.5 0C16.2956 0 15.121 0.375338 14.1387 1.07409C13.1564 1.77284 12.4148 2.76047 12.0167 3.90036H3.88889C2.85844 3.90344 1.87107 4.31532 1.14243 5.04604C0.413787 5.77675 0.00307752 6.76693 0 7.80032V35.1C0.00307752 36.1334 0.413787 37.1236 1.14243 37.8543C1.87107 38.585 2.85844 38.9969 3.88889 39H31.1111C32.1416 38.9969 33.1289 38.585 33.8576 37.8543C34.5862 37.1236 34.9969 36.1334 35 35.1V7.80032C34.9969 6.76693 34.5862 5.77675 33.8576 5.04604C33.1289 4.31532 32.1416 3.90344 31.1111 3.90036ZM17.5 3.90036C17.8846 3.90036 18.2605 4.01472 18.5803 4.22899C18.9 4.44325 19.1493 4.7478 19.2964 5.10411C19.4436 5.46042 19.4821 5.8525 19.4071 6.23076C19.3321 6.60902 19.1469 6.95647 18.8749 7.22918C18.603 7.50189 18.2565 7.68761 17.8793 7.76285C17.5022 7.83809 17.1112 7.79947 16.7559 7.65188C16.4006 7.50429 16.0969 7.25436 15.8833 6.93369C15.6696 6.61301 15.5556 6.23601 15.5556 5.85034C15.5571 5.33364 15.7624 4.83855 16.1268 4.4732C16.4911 4.10784 16.9848 3.9019 17.5 3.90036ZM13.6111 13.6503L19.0361 19.0985L23.9361 14.1846L21.3889 11.7003H29.1667V19.5002L26.6856 16.9438L19.04 24.6169L13.6111 19.1687L8.58278 24.2074L5.83333 21.4502L13.6111 13.6503ZM31.1111 33.1501H3.88889V29.2501H31.1111V33.1501Z" fill="#E2E8F0"/>
</svg>
